<?xml version="1.0" encoding="UTF-8"?>
<svg width="49px" height="49px" viewBox="0 0 49 49" version="1.1" xmlns="http://www.w3.org/2000/svg" xmlns:xlink="http://www.w3.org/1999/xlink">
    <title>CDC2B1D8-C217-4926-9D07-3FFE837E51FE</title>
    <g id="Page-1" stroke="none" stroke-width="1" fill="none" fill-rule="evenodd">
        <g id="Homepage_XL_V3" transform="translate(-1252.000000, -60.000000)" fill-rule="nonzero">
            <g id="Search" transform="translate(1252.000000, 60.000000)">
                <rect id="Rectangle" fill="#FA9076" x="0" y="0" width="49" height="49" rx="24.5"></rect>
                <path d="M35.6080268,33.7571472 L30.4121964,28.6349595 C33.3209624,24.8318613 33.0300858,19.3384971 29.5395666,15.86045 C27.6327089,13.9426483 25.1764176,13 22.6878067,13 C20.1991958,13 17.7429046,13.9426483 15.8360468,15.86045 C12.0546511,19.6635482 12.0546511,25.8395198 15.8360468,29.642618 C17.7429046,31.5604197 20.1991958,32.503068 22.6878067,32.503068 C24.7562626,32.503068 26.8247184,31.8529657 28.5376583,30.5202561 L33.7658084,35.6099386 C34.0243653,35.8699795 34.3475616,36 34.7030774,36 C35.0262736,36 35.3817895,35.8699795 35.6403464,35.6099386 C36.1251408,35.1223619 36.1251408,34.277229 35.6080268,33.7571472 Z M22.7201264,29.8701538 C20.8132687,29.8701538 19.0680091,29.1225362 17.7105849,27.7898266 C14.963417,25.0268919 14.963417,20.5086812 17.7105849,17.7132414 C19.0356894,16.3805318 20.8132687,15.6329142 22.7201264,15.6329142 C24.6269841,15.6329142 26.3722437,16.3805318 27.7296678,17.7132414 C29.0870919,19.0459511 29.7981236,20.8337323 29.7981236,22.751534 C29.7981236,24.6693357 29.0547723,26.4246118 27.7296678,27.7898266 C26.4045633,29.1550413 24.5946644,29.8701538 22.7201264,29.8701538 Z" id="Shape" fill="#FFFFFF"></path>
            </g>
        </g>
    </g>
</svg>